<svg xmlns="http://www.w3.org/2000/svg" width="219.945" height="218.161" viewBox="0 0 219.945 218.161">
  <path id="Exclusion_2" data-name="Exclusion 2" d="M200,218.161h0l.3-1.146a4.173,4.173,0,0,0,2.535-.964,5.891,5.891,0,0,0,1.274-2.777l4.154-17.419c.776-3.227,1.17-5.05,1.17-5.416a.519.519,0,0,0-.573-.6c-.67,0-1.967,1-3.856,2.961l-.895-.918a16.158,16.158,0,0,1,4.154-3.7,7.486,7.486,0,0,1,3.58-1.193,1.348,1.348,0,0,1,.906.287,1.05,1.05,0,0,1,.333.838,6.536,6.536,0,0,1-.149,1.365c-.1.463-.4,1.548-.93,3.316a39.276,39.276,0,0,1,4.8-4.338,7.445,7.445,0,0,1,3.947-1.4,2.386,2.386,0,0,1,1.973,1.1,5.67,5.67,0,0,1,.8,3.327,18.333,18.333,0,0,1-3.463,10.557,13.76,13.76,0,0,1-3.646,3.752,7.26,7.26,0,0,1-4.013,1.251,6.907,6.907,0,0,1-3.3-.9l-1.961,7.574a4.59,4.59,0,0,0-.184,1.124,1.3,1.3,0,0,0,.643,1.217,12.652,12.652,0,0,0,4.154.941l-.3,1.147c-2.449-.2-4.4-.3-5.806-.3-1.45,0-3.35.1-5.646.3Zm18.113-28.044a4.21,4.21,0,0,0-2.473,1.079,15.436,15.436,0,0,0-3.252,3.327,13.807,13.807,0,0,0-1.511,4.131l-1.223,4.98a5.311,5.311,0,0,0,3.713,1.814c1.825,0,3.448-1.444,4.824-4.292a19.258,19.258,0,0,0,2.074-8.376,2.97,2.97,0,0,0-.584-1.984A1.972,1.972,0,0,0,218.115,190.117Zm-38.79,28.044h0l.3-1.146a4.179,4.179,0,0,0,2.536-.964,5.9,5.9,0,0,0,1.273-2.777l4.154-17.419c.777-3.23,1.171-5.052,1.171-5.416a.519.519,0,0,0-.574-.6c-.67,0-1.967,1-3.856,2.961l-.895-.918a16.158,16.158,0,0,1,4.154-3.7,7.486,7.486,0,0,1,3.58-1.193,1.348,1.348,0,0,1,.906.287,1.05,1.05,0,0,1,.333.838,6.535,6.535,0,0,1-.149,1.365c-.1.464-.411,1.58-.929,3.316a39.318,39.318,0,0,1,4.8-4.338,7.445,7.445,0,0,1,3.947-1.4,2.387,2.387,0,0,1,1.974,1.1,5.672,5.672,0,0,1,.8,3.327,18.332,18.332,0,0,1-3.462,10.557,13.759,13.759,0,0,1-3.646,3.752,7.261,7.261,0,0,1-4.014,1.251,6.907,6.907,0,0,1-3.3-.9l-1.961,7.574a4.589,4.589,0,0,0-.184,1.124,1.3,1.3,0,0,0,.643,1.217,12.652,12.652,0,0,0,4.154.941l-.3,1.147c-2.449-.2-4.4-.3-5.807-.3-1.45,0-3.349.1-5.645.3Zm18.113-28.044a4.205,4.205,0,0,0-2.473,1.079,15.423,15.423,0,0,0-3.253,3.327,13.827,13.827,0,0,0-1.511,4.131l-1.223,4.98a5.314,5.314,0,0,0,3.713,1.814c1.825,0,3.448-1.444,4.825-4.292a19.268,19.268,0,0,0,2.074-8.376,2.97,2.97,0,0,0-.584-1.984A1.971,1.971,0,0,0,197.438,190.117Zm-85.768,28.044h0l.3-1.146a4.173,4.173,0,0,0,2.535-.964,5.892,5.892,0,0,0,1.274-2.777l4.154-17.419c.776-3.227,1.17-5.049,1.17-5.416a.519.519,0,0,0-.573-.6c-.67,0-1.967,1-3.856,2.961l-.895-.918a16.14,16.14,0,0,1,4.154-3.7,7.486,7.486,0,0,1,3.58-1.193,1.351,1.351,0,0,1,.906.287,1.053,1.053,0,0,1,.333.838,6.6,6.6,0,0,1-.149,1.365c-.1.468-.413,1.583-.93,3.316a39.283,39.283,0,0,1,4.8-4.338,7.439,7.439,0,0,1,3.947-1.4,2.387,2.387,0,0,1,1.974,1.1,5.67,5.67,0,0,1,.8,3.327,18.333,18.333,0,0,1-3.463,10.557,13.759,13.759,0,0,1-3.646,3.752,7.261,7.261,0,0,1-4.014,1.251,6.912,6.912,0,0,1-3.3-.9l-1.961,7.574a4.59,4.59,0,0,0-.184,1.124,1.3,1.3,0,0,0,.643,1.217,12.656,12.656,0,0,0,4.154.941l-.3,1.147c-2.449-.2-4.4-.3-5.806-.3-1.45,0-3.35.1-5.646.3Zm18.113-28.044a4.21,4.21,0,0,0-2.473,1.079,15.418,15.418,0,0,0-3.252,3.327,13.777,13.777,0,0,0-1.511,4.131l-1.223,4.98a5.311,5.311,0,0,0,3.713,1.814c1.825,0,3.448-1.444,4.824-4.292a19.258,19.258,0,0,0,2.074-8.376,2.97,2.97,0,0,0-.584-1.984A1.972,1.972,0,0,0,129.784,190.117ZM103,207.077a5.188,5.188,0,0,1-3.958-1.607,6.185,6.185,0,0,1-1.5-4.383,15.678,15.678,0,0,1,2.754-8.9,12.472,12.472,0,0,1,3.89-3.8,9.223,9.223,0,0,1,4.739-1.268,4.691,4.691,0,0,1,3.741,1.79,7.59,7.59,0,0,1,1.491,4.98,13.506,13.506,0,0,1-3.58,9.146C108.195,205.714,105.647,207.077,103,207.077Zm3.971-18.245c-1.294,0-2.564.938-3.775,2.789a14.026,14.026,0,0,0-1.824,7.7,8.566,8.566,0,0,0,1.125,4.705,2.531,2.531,0,0,0,2.2,1.262c1.279,0,2.461-.8,3.512-2.387a13.855,13.855,0,0,0,2.02-7.688,9.672,9.672,0,0,0-.93-4.911A2.725,2.725,0,0,0,106.968,188.832Zm68.687,18.222a1.662,1.662,0,0,1-1.274-.5,1.982,1.982,0,0,1-.471-1.4c0-1.9,1.158-6.621,3.443-14.022a3.288,3.288,0,0,0,.16-.941c0-.3-.139-.459-.413-.459a2.034,2.034,0,0,0-1.044.367,23.707,23.707,0,0,0-2.6,2.341l-1.01-.78a17.974,17.974,0,0,1,4.183-3.592,6.916,6.916,0,0,1,3.22-1.067,1.73,1.73,0,0,1,1.123.321,1.074,1.074,0,0,1,.39.872,42.954,42.954,0,0,1-1.488,5.646c-1.609,5.405-2.426,8.71-2.426,9.823a.886.886,0,0,0,.16.539.443.443,0,0,0,.345.218c.487,0,1.754-.957,3.764-2.846l.895.872a29.977,29.977,0,0,1-4.59,3.787A5.156,5.156,0,0,1,175.655,207.054Zm-11.429,0a1.565,1.565,0,0,1-1.3-.643,3.3,3.3,0,0,1-.493-2,13.838,13.838,0,0,1,.379-2.673c.25-1.161.972-3.7,2.146-7.539a23.236,23.236,0,0,0,.78-3.327c0-.487-.263-.734-.782-.734a4.742,4.742,0,0,0-2.417.961,14.514,14.514,0,0,0-3.59,3.388,10.564,10.564,0,0,0-1.589,3.907l-1.811,8.015h-3.42c.729-2.654,1.3-4.859,1.7-6.557l3.373-14.718a18.527,18.527,0,0,1,2.422-6.279,11.092,11.092,0,0,1,3.924-3.515,10.022,10.022,0,0,1,4.785-1.314,2.338,2.338,0,0,1,1.56.489,1.561,1.561,0,0,1,.574,1.234,1.423,1.423,0,0,1-.563,1.105,2.3,2.3,0,0,1-1.528.477,10.832,10.832,0,0,1-1.425-.121,22.424,22.424,0,0,0-2.734-.292,2.1,2.1,0,0,0-1.724.853,12.076,12.076,0,0,0-1.379,4.012l-2.56,11.327a29.733,29.733,0,0,1,5.951-4.835,6.356,6.356,0,0,1,3.033-1.168,1.855,1.855,0,0,1,1.4.527,2.041,2.041,0,0,1,.506,1.469,6.775,6.775,0,0,1-.185,1.561c-.2.9-.658,2.507-1.4,4.911-1.009,3.312-1.585,5.309-1.761,6.1a10.021,10.021,0,0,0-.265,2.134.985.985,0,0,0,.126.551.432.432,0,0,0,.379.184c.366,0,1.061-.44,2.066-1.308.563-.472,1.258-1.043,2.065-1.7l.6.849a20.382,20.382,0,0,1-4.337,3.718A5.134,5.134,0,0,1,164.226,207.054Zm95.561-.046a6.265,6.265,0,0,1-4.063-1.113,3.455,3.455,0,0,1-1.331-2.742,1.856,1.856,0,0,1,.5-1.331,1.655,1.655,0,0,1,1.239-.528,1.574,1.574,0,0,1,1.1.425,1.325,1.325,0,0,1,.459,1c0,.156-.01.357-.031.6-.01.207-.015.372-.015.5a1.615,1.615,0,0,0,.641,1.285,2.53,2.53,0,0,0,1.692.528,5.254,5.254,0,0,0,2.173-.424,3.426,3.426,0,0,0,1.989-2.992,3.206,3.206,0,0,0-.493-1.651,21.47,21.47,0,0,0-2.215-2.727,7.885,7.885,0,0,1-2.386-5.111,5.234,5.234,0,0,1,1.813-3.931,6.538,6.538,0,0,1,4.612-1.685,5.407,5.407,0,0,1,3.155.792,2.251,2.251,0,0,1,1.113,1.824,1.464,1.464,0,0,1-.471,1.078,1.573,1.573,0,0,1-1.136.459,1.441,1.441,0,0,1-.757-.194,4.3,4.3,0,0,1-.918-.976,3.029,3.029,0,0,0-2.227-1.492,2.3,2.3,0,0,0-1.663.723,2.447,2.447,0,0,0-.724,1.8,3.915,3.915,0,0,0,.459,1.822,16.09,16.09,0,0,0,2.318,2.854c1.69,1.795,2.547,3.522,2.547,5.134a5.544,5.544,0,0,1-2.065,4.252A7.783,7.783,0,0,1,259.787,207.008Zm-31.3,0a2.985,2.985,0,0,1-2.49-1.1,5.8,5.8,0,0,1-.86-3.534,18.636,18.636,0,0,1,2.983-9.777,13.359,13.359,0,0,1,3.678-4.148,7.507,7.507,0,0,1,4.332-1.383,3.506,3.506,0,0,1,2.49.814,2.948,2.948,0,0,1,.86,2.237,5.035,5.035,0,0,1-1.033,2.938,12.016,12.016,0,0,1-3.695,3.007c-.881.5-2.8,1.42-5.692,2.731a14.455,14.455,0,0,0-.206,2.363,3.753,3.753,0,0,0,.516,2.272,1.824,1.824,0,0,0,1.5.643,4.934,4.934,0,0,0,2.065-.528,29.278,29.278,0,0,0,4.429-2.892l.757,1.01C234.391,205.209,231.148,207.008,228.484,207.008Zm5.806-18.039a2.635,2.635,0,0,0-1.652.643,6.4,6.4,0,0,0-1.813,2.57,23.264,23.264,0,0,0-1.492,5.141,18.116,18.116,0,0,0,5.554-3.557,3.916,3.916,0,0,0,1.262-2.64,2.3,2.3,0,0,0-.516-1.571A1.714,1.714,0,0,0,234.29,188.969Zm-92.9,18.039a6.266,6.266,0,0,1-4.063-1.113A3.455,3.455,0,0,1,136,203.153a1.856,1.856,0,0,1,.5-1.331,1.655,1.655,0,0,1,1.239-.528,1.574,1.574,0,0,1,1.1.425,1.325,1.325,0,0,1,.459,1c0,.156-.01.357-.031.6-.01.206-.015.372-.015.5a1.615,1.615,0,0,0,.641,1.285,2.53,2.53,0,0,0,1.692.528,5.254,5.254,0,0,0,2.173-.424,3.426,3.426,0,0,0,1.989-2.992,3.206,3.206,0,0,0-.493-1.651,21.468,21.468,0,0,0-2.215-2.727,7.885,7.885,0,0,1-2.386-5.111,5.234,5.234,0,0,1,1.813-3.931,6.538,6.538,0,0,1,4.613-1.685,5.407,5.407,0,0,1,3.155.792,2.251,2.251,0,0,1,1.113,1.824,1.463,1.463,0,0,1-.471,1.078,1.573,1.573,0,0,1-1.136.459,1.441,1.441,0,0,1-.757-.194,4.3,4.3,0,0,1-.918-.976,3.029,3.029,0,0,0-2.227-1.492,2.3,2.3,0,0,0-1.663.723,2.447,2.447,0,0,0-.724,1.8,3.915,3.915,0,0,0,.459,1.822,16.09,16.09,0,0,0,2.318,2.854c1.69,1.795,2.547,3.522,2.547,5.134a5.544,5.544,0,0,1-2.065,4.252A7.783,7.783,0,0,1,141.392,207.008Zm-75.834-.253c-.791,0-2.18-.077-4.128-.23-1.643-.122-3.225-.184-4.7-.184-.686,0-1.713.023-3.141.069l.527-1.125a9.1,9.1,0,0,0,2.626-.367,2.184,2.184,0,0,0,.883-.849,24.91,24.91,0,0,0,1.811-4.59l1.582-5.99,1.834-7.482a4,4,0,0,0,.138-.94.775.775,0,0,0-.229-.586.9.9,0,0,0-.642-.218,5.71,5.71,0,0,0-.643.069l.229-.987a40.791,40.791,0,0,0,5.9-1.011,43.611,43.611,0,0,0-1.743,5.783l-1.514,6.4a40.269,40.269,0,0,1-3.67,10.465,18.28,18.28,0,0,0,3.485.39,14.02,14.02,0,0,0,6.992-1.687,12.2,12.2,0,0,0,4.734-4.923,14.8,14.8,0,0,0,1.754-7.137,11.44,11.44,0,0,0-2.981-8.227,10.351,10.351,0,0,0-7.8-3.109,16.055,16.055,0,0,0-7.658,1.928,15.442,15.442,0,0,0-5.7,5.106,11.3,11.3,0,0,0-2.1,6.185,4.588,4.588,0,0,0,2.57,4.315,3.179,3.179,0,0,1,.953.711,1.219,1.219,0,0,1,.218.734,1.457,1.457,0,0,1-1.406,1.4,3.128,3.128,0,0,1-2.374-1.606,8.015,8.015,0,0,1-1.567-4.612,14.058,14.058,0,0,1,2.352-7.631,16.8,16.8,0,0,1,6.552-5.863,20.056,20.056,0,0,1,9.34-2.18c4.2,0,7.6,1.139,10.086,3.385a11.011,11.011,0,0,1,3.752,8.5A15.662,15.662,0,0,1,79.27,199.4a15.14,15.14,0,0,1-6.317,5.668A17.807,17.807,0,0,1,65.558,206.755Zm180-.344h-3.419l1.607-6.174c.774-3.006,1.462-5.909,2.042-8.628a9.057,9.057,0,0,0,.207-1.263c0-.365-.17-.551-.5-.551a2.317,2.317,0,0,0-1.056.471,21.931,21.931,0,0,0-2.57,2.329l-.712-.8a17.607,17.607,0,0,1,4.394-3.546,8.021,8.021,0,0,1,3.361-1.182,1.01,1.01,0,0,1,.653.2.609.609,0,0,1,.241.493,10.623,10.623,0,0,1-.3,1.591l-1,4.129a29.557,29.557,0,0,1,5.243-6.267,3.99,3.99,0,0,1,2.345-1.244,1.592,1.592,0,0,1,1.149.447,1.442,1.442,0,0,1,.013,2.1,6.868,6.868,0,0,1-2.236,1.033,9.847,9.847,0,0,0-2.763,1.377,13.129,13.129,0,0,0-2.339,2.457,13.264,13.264,0,0,0-1.778,2.88,48.137,48.137,0,0,0-1.542,5.7l-1.035,4.451Zm-157.867,0h-3.42l1.606-6.174c.778-3.02,1.465-5.923,2.043-8.628a9.1,9.1,0,0,0,.206-1.263c0-.365-.17-.551-.5-.551a2.317,2.317,0,0,0-1.056.471A21.928,21.928,0,0,0,84,192.6l-.711-.8a17.586,17.586,0,0,1,4.393-3.546,8.029,8.029,0,0,1,3.361-1.182,1.015,1.015,0,0,1,.654.2.61.61,0,0,1,.24.493,10.532,10.532,0,0,1-.3,1.591l-1,4.129a29.549,29.549,0,0,1,5.243-6.267,3.99,3.99,0,0,1,2.345-1.244,1.593,1.593,0,0,1,1.15.447,1.442,1.442,0,0,1,.013,2.1,6.879,6.879,0,0,1-2.236,1.033,9.851,9.851,0,0,0-2.764,1.377,13.129,13.129,0,0,0-2.339,2.457,13.333,13.333,0,0,0-1.778,2.88,47.979,47.979,0,0,0-1.541,5.7l-1.035,4.451Zm94.137-24.946a1.525,1.525,0,0,1-1.148-.481,1.763,1.763,0,0,1-.459-1.263,2.507,2.507,0,0,1,.666-1.755,2.089,2.089,0,0,1,1.583-.724,1.572,1.572,0,0,1,1.17.471,1.662,1.662,0,0,1,.459,1.205,2.576,2.576,0,0,1-.7,1.778A2.1,2.1,0,0,1,181.828,181.465ZM158.62,152.971a8.173,8.173,0,0,1-5.328-2.075,11.717,11.717,0,0,0-7.5-2.711,12.994,12.994,0,0,0-4.514.841,9.6,9.6,0,0,1-3.363.6,8.517,8.517,0,0,1-7.509-4.469,11.672,11.672,0,0,0-2.459-2.581A11.923,11.923,0,0,0,120.53,140c-.25,0-.506.008-.759.022a5.331,5.331,0,0,1-.55.024,9.141,9.141,0,0,1-4.33-1.111,9.887,9.887,0,0,1-4.578-6.086,9.346,9.346,0,0,0-1.3-3.255,10.652,10.652,0,0,0-6.53-4.645,9.739,9.739,0,0,1-3.441-1.727,8.345,8.345,0,0,1-2.316-2.785,9.419,9.419,0,0,1-.948-4.622,15.867,15.867,0,0,0-.766-4.123,13.02,13.02,0,0,0-5.033-6.956,6.319,6.319,0,0,1-2.618-2.381,7.97,7.97,0,0,1-1.158-3.6,14.678,14.678,0,0,1,.823-5.766c.01-.067.931-6.789-1.686-9.679a9.9,9.9,0,0,1-2.077-3.573,9.308,9.308,0,0,1-.423-3.981,11.43,11.43,0,0,1,1.92-5.013,11.232,11.232,0,0,0,1.692-3.178,13.372,13.372,0,0,0,.157-8.354,14,14,0,0,1-.464-4.193,8.708,8.708,0,0,1,.839-3.476A6.267,6.267,0,0,1,89.8,48.708a17.767,17.767,0,0,0,3.1-3.049c1.366-1.725,2.906-4.418,2.485-7.448a12.3,12.3,0,0,1,.535-4.25,8.227,8.227,0,0,1,1.85-3.228,7.415,7.415,0,0,1,3.957-2.111,15.639,15.639,0,0,0,3.787-1.909,13.58,13.58,0,0,0,5.418-6.989,10.647,10.647,0,0,1,1.293-3.026,7.441,7.441,0,0,1,1.971-2.13,5.874,5.874,0,0,1,3.168-1.073l1.776-.328s.357.026.927.026c1.673,0,5.765-.238,7.644-2.441l5.381-5.5c.012-.016,1.229-1.64,4.584-1.64a15.284,15.284,0,0,1,4.385.732,15.592,15.592,0,0,0,4.163.592,8.111,8.111,0,0,0,5.44-1.718l3.262-1.78A6.648,6.648,0,0,1,159,0a7.485,7.485,0,0,1,4.254,1.436l3.262,2.143a8.261,8.261,0,0,0,4.9,1.333,14.237,14.237,0,0,0,3.8-.552l2.99-.6a7.206,7.206,0,0,1,1.81-.209,8.23,8.23,0,0,1,3.632.826A9.558,9.558,0,0,1,187.573,8.1a10.582,10.582,0,0,0,2.509,2.553,13.33,13.33,0,0,0,8.07,2.553c.114,0,.231,0,.347,0,0,0,.045,0,.123,0a9.486,9.486,0,0,1,3.821.875,8.326,8.326,0,0,1,4.518,5.392,9.971,9.971,0,0,0,1.7,3.991c1.355,1.976,4.072,4.627,9.313,6.034a4.767,4.767,0,0,1,1.9,1.269,8.779,8.779,0,0,1,2.174,5.777l.544,4.3a11.042,11.042,0,0,0,4.946,7.264,10.875,10.875,0,0,1,2.892,2.885,9.187,9.187,0,0,1,1.472,3.528,9.683,9.683,0,0,1-.415,4.847,13.072,13.072,0,0,0-.856,3.8,10.379,10.379,0,0,0,2.269,7.548,14.89,14.89,0,0,1,1.674,4.161,10.456,10.456,0,0,1,.2,3.952,8,8,0,0,1-1.909,4.09,9.475,9.475,0,0,0-1.916,3.394,14.336,14.336,0,0,0,.5,9.809,8.392,8.392,0,0,1,.081,3.2,7.992,7.992,0,0,1-1.075,2.918,8.869,8.869,0,0,1-2.866,2.832,10.207,10.207,0,0,0-2.881,2.683,14.79,14.79,0,0,0-2.772,9.357,7.922,7.922,0,0,1-.714,3.235,7.77,7.77,0,0,1-1.924,2.626,9.691,9.691,0,0,1-3.886,2.038,8.776,8.776,0,0,0-3.261,1.4A13.374,13.374,0,0,0,207,133.736a11.624,11.624,0,0,1-1.636,3.219,8.359,8.359,0,0,1-2.328,2.213,6.715,6.715,0,0,1-3.587,1.006,8.344,8.344,0,0,1-1.381-.119,6.526,6.526,0,0,0-.892-.051c-1.909,0-6.733.6-10.306,6.116a8.3,8.3,0,0,1-1.823,1.758,9.26,9.26,0,0,1-5.464,1.758,12.3,12.3,0,0,1-4.49-.918,13.008,13.008,0,0,0-3.186-.367,11.968,11.968,0,0,0-7.595,2.546A9.705,9.705,0,0,1,158.62,152.971Zm.216-141.038a64.905,64.905,0,1,0,64.758,64.905A64.905,64.905,0,0,0,158.836,11.933Zm.363,125.562a60.838,60.838,0,1,1,60.7-60.837A60.837,60.837,0,0,1,159.2,137.495Zm0-120.586A59.748,59.748,0,1,0,218.81,76.658,59.748,59.748,0,0,0,159.2,16.909Zm24.751,95.4a8.045,8.045,0,0,1-8.027-8.045v-.254H142.348v.254a8.027,8.027,0,1,1-16.054,0v-.254h-8.262V90.877h4.2v-8.6L132.33,63.455h11.739v-21.7h51.549V90.877h4.022v13.13h-7.664v.254A8.045,8.045,0,0,1,183.949,112.306Zm-6.035-8.3v.254a6.034,6.034,0,1,0,12.068,0v-.254a6.072,6.072,0,0,0-.436-2h.019a6.04,6.04,0,0,0-11.633,2Zm-49.628,0v.254a6.034,6.034,0,1,0,12.067,0v-.254a6.048,6.048,0,0,0-.435-2h.018a6.04,6.04,0,0,0-11.633,2Zm55.68-7.79a7.919,7.919,0,0,1,4.849,1.643,8.144,8.144,0,0,1,2.852,4.149h5.962V92.875H120.043v9.134h6.6a8.145,8.145,0,0,1,2.851-4.149,7.976,7.976,0,0,1,9.7,0,8.144,8.144,0,0,1,2.851,4.149h34.227a8.149,8.149,0,0,1,2.852-4.149A7.919,7.919,0,0,1,183.967,96.216ZM146.062,43.751V90.877h47.562V43.751ZM124.228,83.377v7.5h19.84v-7.5Zm9.293-17.924-8.545,15.926h19.092V65.453ZM170.251,87.7a20.521,20.521,0,1,1,20.474-20.521A20.521,20.521,0,0,1,170.251,87.7Zm0-38.863a18.342,18.342,0,1,0,18.3,18.342A18.342,18.342,0,0,0,170.251,48.836Zm-.182,33.07a14.819,14.819,0,1,1,14.785-14.818A14.819,14.819,0,0,1,170.069,81.905Zm0-27.458a12.64,12.64,0,1,0,12.611,12.64A12.639,12.639,0,0,0,170.069,54.447Zm-1.6,19.285h0l-4.825-4.286,1.443-1.631,3.146,2.8,7.871-9.487,1.671,1.393-9.305,11.215Z" transform="translate(-49.801)" fill="#fff"/>
</svg>
