<svg xmlns="http://www.w3.org/2000/svg" width="276.759" height="182.135" viewBox="0 0 276.759 182.135">
  <path id="Path_104" data-name="Path 104" d="M136.5,0c14.375,0,22.228,18.77,32.606,20.953,32.561,6.847,53.932,10.6,67.437,40.388C240.606,70.3,267.3,85.82,267.3,96c0,34.781-20.462,31.048-60.026,47.97-20.46,8.751-28.535,38.165-54.468,38.165-19.91,0-54.586-16.97-76.571-19.634-26.108-3.164-64.594,19.5-78.312,7.036C-19.826,153.409,0,118.109,0,96,0,76.483,10.805,49.17,28.674,39.109c13.528-7.618,31.953,1.138,49.281-6.3C98.357,24.053,110.492,0,136.5,0Z" transform="translate(9.462)" fill="#ffdc8a" opacity="0.2"/>
</svg>
